<svg xmlns="http://www.w3.org/2000/svg" width="2000" height="257" viewBox="0 0 2000 257" version="1.1"><path d="M 1923.185 0.684 C 1918.893 2.401, 1920.043 12.320, 1924.985 16.196 C 1927.324 18.031, 1930.051 23.738, 1938.388 44.241 C 1947.553 66.780, 1948.652 70.096, 1947.219 70.897 C 1946.080 71.535, 1945.244 71.348, 1944.464 70.282 C 1943.496 68.957, 1942.702 69.241, 1938.592 72.378 C 1932.431 77.081, 1921.789 83.276, 1913.267 87.122 L 1906.500 90.176 1901 88.447 C 1897.975 87.496, 1892.452 86.495, 1888.726 86.223 C 1883.115 85.813, 1882.027 85.451, 1882.388 84.114 C 1882.629 83.226, 1883.127 80.723, 1883.495 78.551 C 1883.864 76.379, 1884.803 73.692, 1885.583 72.579 C 1886.362 71.466, 1887 69.128, 1887 67.384 C 1887 65.416, 1887.600 63.984, 1888.582 63.607 C 1889.452 63.273, 1895.864 62.967, 1902.832 62.926 C 1909.799 62.885, 1917.525 62.528, 1920 62.133 L 1924.500 61.414 1919 60.085 C 1911.273 58.218, 1904.254 55.190, 1899 51.456 C 1896.525 49.698, 1892.925 47.468, 1891 46.502 C 1889.075 45.536, 1887.417 44.682, 1887.316 44.605 C 1887.058 44.409, 1883 24.874, 1883 23.832 C 1883 23.365, 1885.426 20.344, 1888.391 17.119 C 1892.432 12.723, 1893.958 10.206, 1894.490 7.060 C 1894.880 4.753, 1894.934 2.601, 1894.610 2.277 C 1894.287 1.954, 1891.655 3.912, 1888.761 6.628 C 1885.867 9.345, 1879.819 14.149, 1875.319 17.304 C 1866.980 23.151, 1861.770 29.441, 1857.655 38.630 C 1854.605 45.438, 1833.602 58.227, 1821.500 60.644 L 1817.500 61.443 1823 62.122 C 1826.025 62.496, 1834.237 62.847, 1841.250 62.901 L 1854 63 1854 66.777 C 1854 68.855, 1854.638 71.466, 1855.417 72.579 C 1856.197 73.692, 1857.136 76.379, 1857.505 78.551 C 1857.873 80.723, 1858.391 83.287, 1858.655 84.250 C 1859.063 85.740, 1858.419 86.002, 1854.317 86.012 C 1851.668 86.018, 1845.900 86.913, 1841.500 88 C 1836.501 89.235, 1830.124 89.973, 1824.500 89.969 C 1816.082 89.961, 1796.172 87.824, 1791.904 86.470 C 1790.462 86.012, 1790 86.354, 1790 87.881 C 1790 89.686, 1789.687 89.787, 1787 88.850 C 1784.358 87.929, 1784 87.339, 1784 83.902 C 1784 80.064, 1784.061 80, 1787.750 79.978 C 1791.075 79.959, 1792.434 79.047, 1799.750 71.926 L 1808 63.896 1808 53.174 L 1808 42.453 1800.228 34.727 L 1792.456 27 1781.478 27.007 L 1770.500 27.015 1762.750 34.655 L 1755 42.296 1755 53.421 L 1755 64.547 1762.772 72.273 C 1770.006 79.465, 1770.837 80, 1774.772 80 L 1779 80 1779 83.845 C 1779 86.420, 1778.339 88.288, 1777 89.500 C 1775.796 90.589, 1775 92.580, 1775 94.500 C 1775 96.420, 1775.796 98.411, 1777 99.500 C 1778.571 100.921, 1779 102.580, 1779 107.225 C 1779 112.786, 1779.134 113.120, 1781.250 112.820 C 1783.129 112.553, 1783.551 111.785, 1783.812 108.167 C 1784.056 104.771, 1784.452 103.960, 1785.643 104.417 C 1786.479 104.737, 1787.354 105, 1787.588 105 C 1787.821 105, 1787.718 108.821, 1787.359 113.490 L 1786.706 121.980 1792.365 124.483 C 1800.606 128.127, 1810.558 129.562, 1817.727 128.140 C 1826.357 126.428, 1835.629 121.433, 1842.402 114.846 C 1850.840 106.640, 1851.053 107.136, 1847.949 127.827 C 1839.781 182.287, 1829.294 225.061, 1819.434 244.128 L 1817.949 247 1827.955 247 C 1837.690 247, 1837.978 247.065, 1838.566 249.405 C 1839.454 252.946, 1843.536 256.333, 1846.913 256.333 C 1851.010 256.333, 1854.959 253.453, 1855.659 249.955 L 1856.250 247 1870.500 247 L 1884.750 247 1885.341 249.955 C 1886.041 253.453, 1889.990 256.333, 1894.087 256.333 C 1897.464 256.333, 1901.546 252.946, 1902.434 249.405 C 1903.022 247.066, 1903.310 247, 1913.039 247 L 1923.041 247 1921.142 243.250 C 1911.762 224.719, 1900.899 180.577, 1893.518 131 C 1891.134 114.991, 1890.911 108.321, 1892.787 109.187 C 1893.179 109.368, 1896.689 111.169, 1900.587 113.189 C 1904.484 115.208, 1910.399 117.567, 1913.731 118.430 C 1921.464 120.434, 1935.865 120.445, 1943.540 118.453 C 1949.675 116.860, 1960 112.537, 1960 111.560 C 1960 111.258, 1957.993 105.945, 1955.541 99.755 C 1950.026 85.838, 1950.056 85.981, 1952.539 85.014 C 1954.433 84.277, 1955.931 87.565, 1973.658 131.360 C 1992.198 177.166, 1994.771 182.367, 1996.567 177.687 C 1996.875 176.883, 1988.521 154.977, 1978.003 129.007 C 1960.846 86.645, 1958.983 81.486, 1959.900 78.857 C 1961.255 74.971, 1959.859 71.495, 1956.180 69.593 C 1953.629 68.274, 1952.001 64.929, 1942.887 42.295 C 1933.866 19.891, 1932.546 15.875, 1932.843 11.742 C 1933.153 7.429, 1932.859 6.659, 1929.692 3.492 C 1926.176 -0.024, 1925.589 -0.278, 1923.185 0.684 M 1859.500 76.334 C 1859.879 77.525, 1860.484 85.721, 1860.844 94.546 C 1861.376 107.556, 1861.841 111.111, 1863.302 113.340 C 1866.805 118.683, 1873.552 118.819, 1877.432 113.624 C 1879.245 111.197, 1879.581 108.860, 1880.156 94.678 C 1880.516 85.780, 1881.121 77.525, 1881.500 76.334 C 1882.161 74.256, 1882.034 74.211, 1878.345 75.231 C 1876.230 75.816, 1872.700 76.294, 1870.500 76.294 C 1868.300 76.294, 1864.770 75.816, 1862.655 75.231 C 1858.966 74.211, 1858.839 74.256, 1859.500 76.334" stroke="none" fill="#ec7c04" fill-rule="evenodd"/><path d="M 784.250 30.662 C 783.563 30.940, 783 31.759, 783 32.482 C 783 33.205, 779.832 37.190, 775.960 41.336 L 768.920 48.874 739.875 124.687 C 723.900 166.384, 709.856 202.260, 708.665 204.411 C 705.362 210.378, 701.917 212.421, 694.180 213 L 687.500 213.500 687.500 217.500 L 687.500 221.500 713.750 221.767 L 740 222.033 740 217.517 L 740 213 732.082 213 C 727.727 213, 723.452 212.727, 722.582 212.393 C 719.070 211.045, 721.443 202.364, 734.308 169.500 L 741.745 150.500 775.003 150.500 L 808.262 150.500 817.662 175 C 822.832 188.475, 827.570 201.486, 828.191 203.914 C 829.267 208.122, 829.193 208.437, 826.604 210.664 C 824.284 212.660, 822.804 213, 816.444 213 L 809 213 809 217.513 L 809 222.026 843.250 221.763 L 877.500 221.500 877.500 217.500 L 877.500 213.500 869.350 213 C 859.523 212.397, 858.226 211.456, 853.558 201.536 C 851.737 197.666, 836.138 157.488, 818.893 112.250 C 801.648 67.013, 787.080 30.036, 786.520 30.079 C 785.959 30.122, 784.938 30.385, 784.250 30.662 M 973.334 31.481 C 933.027 38.794, 897.580 72.337, 886.876 113.291 C 884.213 123.483, 883.183 145.057, 884.922 154.249 C 888.745 174.460, 897.745 190.762, 913.338 205.725 C 927.392 219.211, 941.368 225.772, 958.134 226.757 C 985.589 228.370, 1013.196 216.594, 1038.754 192.367 L 1046 185.499 1046 168.860 C 1046 148.450, 1046.308 147.788, 1056.158 147.004 L 1062.500 146.500 1062.500 142.500 L 1062.500 138.500 1031.250 138.236 L 1000 137.972 1000 142.486 L 1000 147 1008.077 147 C 1015.671 147, 1016.329 147.175, 1019.077 149.923 L 1022 152.846 1022 171.819 L 1022 190.792 1017.221 193.858 C 996.094 207.415, 976.102 209.345, 953.642 199.995 C 942.669 195.427, 934.607 189.876, 925.327 180.499 C 918.434 173.536, 916.366 170.616, 912.131 161.871 C 904.530 146.173, 903.533 141.503, 903.515 121.500 C 903.499 102.988, 904.127 99.822, 910.269 87.500 C 916.897 74.199, 934.483 61.323, 953.568 55.797 C 960.602 53.760, 963.650 53.500, 980.500 53.500 C 997.345 53.500, 1000.301 53.752, 1006.560 55.721 C 1018.344 59.428, 1023.892 64.579, 1025.535 73.334 L 1026.241 77.100 1030.871 76.800 L 1035.500 76.500 1035.146 58.500 C 1034.914 46.735, 1034.394 40.112, 1033.646 39.380 C 1032.184 37.951, 1015.371 33.256, 1005.263 31.454 C 995.695 29.748, 982.824 29.759, 973.334 31.481 M 1357.498 30.765 C 1356.948 31.169, 1355.873 32.711, 1355.111 34.190 C 1354.349 35.670, 1351.104 39.535, 1347.899 42.780 L 1342.072 48.680 1314.136 121.590 C 1298.771 161.690, 1285.412 196.525, 1284.449 199 C 1282.325 204.459, 1278.693 209.537, 1275.709 211.218 C 1274.494 211.903, 1270.575 212.696, 1267 212.981 L 1260.500 213.500 1260.500 217.500 L 1260.500 221.500 1286.750 221.767 L 1313 222.033 1313 217.517 L 1313 213 1305.082 213 C 1300.727 213, 1296.452 212.727, 1295.582 212.393 C 1292.223 211.104, 1294.216 203.651, 1306.119 173 L 1314.857 150.500 1348.128 150.500 L 1381.398 150.500 1388.688 169.500 C 1403.574 208.298, 1403.827 209.391, 1398.477 211.829 C 1397.063 212.473, 1392.777 213, 1388.953 213 L 1382 213 1382 217.513 L 1382 222.026 1416.250 221.763 L 1450.500 221.500 1450.500 217.500 L 1450.500 213.500 1442.350 213 C 1433.082 212.431, 1431.697 211.597, 1427.783 204.228 C 1426.401 201.628, 1410.733 161.363, 1392.964 114.750 C 1375.195 68.137, 1360.171 30.007, 1359.578 30.015 C 1358.985 30.024, 1358.049 30.361, 1357.498 30.765 M 1144.500 33.484 C 1132.950 34.215, 1113.912 34.855, 1102.193 34.907 L 1080.885 35 1081.193 39.250 L 1081.500 43.500 1089.841 44 C 1103.324 44.808, 1102 35.595, 1102 128.611 C 1102 206.326, 1101.958 208.042, 1100.025 209.975 C 1097.673 212.327, 1095.473 212.901, 1087.500 213.243 L 1081.500 213.500 1081.193 217.750 L 1080.885 222 1114.943 222 L 1149 222 1149 217.500 L 1149 213 1140.556 213 C 1133.072 213, 1131.792 212.726, 1129.306 210.587 L 1126.500 208.174 1126.205 128.587 L 1125.910 49 1137.705 48.750 C 1154.488 48.394, 1166.777 48.821, 1172.096 49.943 C 1189.975 53.716, 1199.750 62.741, 1203.002 78.479 C 1207.318 99.370, 1195.580 115.769, 1171.500 122.488 C 1167.593 123.578, 1159.831 124.354, 1149.250 124.711 C 1131.271 125.318, 1132.025 124.950, 1134.025 132.150 L 1135.039 135.801 1141.987 136.499 C 1145.809 136.883, 1151.088 136.919, 1153.718 136.579 L 1158.500 135.962 1172.442 157.731 C 1180.111 169.704, 1192.711 189.061, 1200.442 200.748 L 1214.500 221.995 1234.250 221.998 L 1254 222 1254 217.500 L 1254 213 1249.150 213 C 1239.126 213, 1231.537 204.615, 1204.105 163.226 C 1192.340 145.475, 1182.891 130.793, 1183.107 130.599 C 1183.323 130.405, 1185.525 129.227, 1188 127.982 C 1195.870 124.023, 1203.304 118.433, 1210.117 111.350 C 1221.108 99.922, 1225.957 87.572, 1225.985 70.928 C 1226.005 59.279, 1224.055 53.924, 1217.348 47.217 C 1211.637 41.507, 1203.413 37.115, 1193.500 34.485 C 1185.113 32.259, 1169.050 31.931, 1144.500 33.484 M 3.193 39.250 L 3.500 43.500 11.602 44 C 20.604 44.556, 22.132 45.378, 25.148 51.290 C 26.249 53.448, 40.428 93.528, 56.658 140.357 C 72.887 187.186, 86.530 225.879, 86.976 226.343 C 88.413 227.839, 91.568 225.259, 98.655 216.791 L 105.595 208.500 124.005 155.257 C 134.130 125.974, 142.743 102.349, 143.144 102.757 C 143.545 103.166, 153.387 130.950, 165.016 164.500 C 176.644 198.050, 186.524 225.879, 186.972 226.343 C 188.414 227.837, 191.565 225.262, 198.659 216.791 L 205.601 208.500 232.443 130.500 C 247.206 87.600, 259.893 51.290, 260.637 49.811 C 262.843 45.421, 265.799 44, 272.723 44 L 279 44 279 39.500 L 279 35 253 35 L 227 35 227 39.500 L 227 44 235.566 44 C 249.590 44, 250.133 45.083, 244.639 62.093 C 242.045 70.125, 207.193 170.415, 200.931 187.867 C 199.765 191.116, 198.882 188.821, 175.901 122.867 C 162.800 85.265, 151.812 53.150, 151.484 51.500 C 150.385 45.964, 152.559 44.568, 163.166 44 L 172.500 43.500 172.807 39.250 L 173.115 35 143.057 35 L 113 35 113 39.443 L 113 43.885 117.217 44.193 C 122.865 44.604, 124.110 46.625, 131.303 67.045 L 137.106 83.520 119.621 134.010 C 110.005 161.779, 101.594 186.016, 100.929 187.868 C 99.766 191.113, 98.849 188.699, 75.861 121.868 C 62.738 83.716, 52 51.318, 52 49.872 C 52 45.970, 54.504 44.556, 62.399 44 L 69.500 43.500 69.807 39.250 L 70.115 35 36.500 35 L 2.885 35 3.193 39.250 M 292.190 38.750 L 292.500 42.500 300.874 43.044 C 308.463 43.537, 309.473 43.849, 311.642 46.370 L 314.035 49.152 313.767 129.041 C 313.516 204.120, 313.393 209.037, 311.719 210.715 C 310.378 212.058, 307.780 212.624, 301.219 213 L 292.500 213.500 292.500 217.500 L 292.500 221.500 326.808 221.763 L 361.116 222.026 360.808 217.763 L 360.500 213.500 353 213.247 C 342.770 212.902, 341.275 212.432, 339.500 209.001 C 338.150 206.390, 337.997 196.471, 338.232 127.043 L 338.500 48.055 340.777 45.777 C 342.740 43.814, 344.289 43.452, 352.027 43.151 L 361 42.801 361 38.901 L 361 35 326.440 35 L 291.879 35 292.190 38.750 M 378.680 41.750 C 376.897 61.558, 376.702 71.949, 378.105 72.392 C 384.274 74.341, 384.879 74.169, 385.589 70.257 C 387.103 61.914, 393.062 53.683, 400.500 49.662 C 404.391 47.559, 405.636 47.492, 446.375 47.208 L 488.249 46.917 486.375 49.787 C 485.344 51.366, 460.087 89.160, 430.250 133.774 C 383.969 202.974, 376 215.412, 376 218.445 L 376 222 449.481 222 L 522.962 222 523.495 219.750 C 523.788 218.512, 525.831 210.123, 528.036 201.106 C 530.241 192.089, 531.922 184.592, 531.773 184.445 C 531.623 184.298, 529.887 183.877, 527.916 183.509 C 524.375 182.848, 524.311 182.896, 522.492 187.659 C 520.099 193.927, 512.192 201.794, 504.500 205.561 L 498.500 208.500 453.667 208.789 C 417.283 209.024, 408.979 208.835, 409.606 207.789 C 410.236 206.736, 473.755 112.352, 512.663 54.654 C 519.123 45.074, 522 39.913, 522 37.904 L 522 35 450.644 35 L 379.287 35 378.680 41.750 M 541.101 53.129 C 540.417 63.099, 540.227 71.590, 540.679 71.996 C 541.130 72.403, 542.916 73, 544.647 73.322 C 547.628 73.878, 547.831 73.715, 548.481 70.251 C 550.028 62.006, 556.123 53.650, 563.500 49.662 C 567.149 47.690, 568.978 47.500, 584.337 47.500 C 600.825 47.500, 601.214 47.549, 603.087 49.861 C 604.934 52.140, 605 54.894, 605 130 C 605 221.614, 606.490 212.216, 591.842 213 L 582.500 213.500 582.500 217.500 L 582.500 221.500 617.250 221.763 L 652 222.026 652 217.513 L 652 213 643.556 213 C 636.072 213, 634.793 212.726, 632.306 210.587 L 629.500 208.174 629.195 134.837 C 629.028 94.502, 629.176 59.109, 629.525 56.187 C 630.070 51.625, 630.608 50.593, 633.330 48.892 C 636.200 47.099, 637.967 46.940, 652 47.220 C 669.513 47.568, 672.801 48.593, 678.976 55.626 C 682.729 59.900, 686.976 68.431, 686.990 71.725 C 686.999 73.692, 687.377 73.880, 690.250 73.343 C 692.038 73.009, 693.905 72.367, 694.400 71.917 C 694.933 71.433, 694.830 64.651, 694.147 55.300 C 693.513 46.610, 692.996 38.487, 692.997 37.250 L 693 35 617.672 35 L 542.345 35 541.101 53.129 M 1471 39.500 L 1471 44 1479.250 44.004 C 1488.377 44.008, 1493.284 45.985, 1494.933 50.325 C 1495.994 53.114, 1482.673 201.961, 1481.002 205.995 C 1479.217 210.304, 1474.545 212.330, 1465.272 212.817 L 1457 213.251 1457 217.625 L 1457 222 1489.500 222 L 1522 222 1522 217.616 L 1522 213.233 1512.250 212.810 C 1502.030 212.367, 1496.978 210.695, 1495.065 207.121 C 1494.367 205.818, 1495.954 184.766, 1500.377 136.624 C 1503.845 98.872, 1506.868 67.799, 1507.093 67.573 C 1507.319 67.347, 1520.978 102.451, 1537.445 145.581 C 1553.912 188.712, 1567.662 224, 1567.999 224 C 1568.336 224, 1570.136 222.875, 1572 221.500 C 1573.864 220.125, 1575.905 219, 1576.536 219 C 1577.167 219, 1590.916 184.244, 1607.089 141.765 L 1636.495 64.530 1637.146 70.015 C 1639.288 88.082, 1648.262 204.970, 1647.680 207.221 C 1646.695 211.030, 1643.729 212.320, 1634.500 212.952 L 1626.500 213.500 1626.500 217.500 L 1626.500 221.500 1660.750 221.763 L 1695 222.026 1695 217.513 L 1695 213 1688.065 213 C 1679.853 213, 1676.683 211.972, 1674.468 208.592 C 1672.259 205.219, 1659.408 52.688, 1660.984 48.543 C 1662.396 44.827, 1667.500 43, 1676.468 43 L 1684 43 1684 38.983 L 1684 34.965 1659.399 35.233 L 1634.797 35.500 1606.649 109.228 C 1591.167 149.778, 1578.275 182.963, 1578 182.972 C 1577.725 182.982, 1564.900 149.700, 1549.500 109.014 L 1521.500 35.038 1496.250 35.019 L 1471 35 1471 39.500 M 760.662 101.088 C 753.052 120.926, 747.021 137.355, 747.262 137.595 C 747.502 137.835, 760.098 137.912, 775.252 137.766 L 802.805 137.500 789.152 101.254 C 781.644 81.318, 775.275 65.009, 775 65.012 C 774.725 65.015, 768.273 81.249, 760.662 101.088 M 1347.698 65.679 C 1346.993 66.820, 1320 136.873, 1320 137.562 C 1320 137.803, 1332.648 138, 1348.107 138 C 1374.474 138, 1376.171 137.892, 1375.518 136.250 C 1375.136 135.287, 1369.192 119.650, 1362.311 101.500 C 1355.429 83.350, 1349.468 67.636, 1349.064 66.579 C 1348.650 65.496, 1348.054 65.104, 1347.698 65.679" stroke="none" fill="#fcfcfc" fill-rule="evenodd"/></svg>